<?xml version="1.0" encoding="UTF-8" standalone="no"?>
<!-- Created with Inkscape (http://www.inkscape.org/) -->

<svg
   version="1.1"
   id="svg1"
   width="1024"
   height="1024"
   viewBox="0 0 1024 1024"
   sodipodi:docname="Logo.svg"
   xml:space="preserve"
   inkscape:version="1.4 (86a8ad7, 2024-10-11)"
   xmlns:inkscape="http://www.inkscape.org/namespaces/inkscape"
   xmlns:sodipodi="http://sodipodi.sourceforge.net/DTD/sodipodi-0.dtd"
   xmlns:xlink="http://www.w3.org/1999/xlink"
   xmlns="http://www.w3.org/2000/svg"
   xmlns:svg="http://www.w3.org/2000/svg"><defs
     id="defs1"><linearGradient
       id="linearGradient7"
       inkscape:collect="always"><stop
         style="stop-color:#3de2dc;stop-opacity:1;"
         offset="0"
         id="stop7" /><stop
         style="stop-color:#3d41dc;stop-opacity:1;"
         offset="1"
         id="stop8" /></linearGradient><linearGradient
       id="linearGradient66"
       inkscape:collect="always"><stop
         style="stop-color:#ff4b2d;stop-opacity:1;"
         offset="0.62337661"
         id="stop66" /><stop
         style="stop-color:#ffc12d;stop-opacity:1;"
         offset="1"
         id="stop67" /></linearGradient><inkscape:perspective
       sodipodi:type="inkscape:persp3d"
       inkscape:vp_x="0 : 512 : 1"
       inkscape:vp_y="0 : 1000 : 0"
       inkscape:vp_z="1024 : 512 : 1"
       inkscape:persp3d-origin="512 : 341.33333 : 1"
       id="perspective30" /><linearGradient
       inkscape:collect="always"
       xlink:href="#linearGradient66"
       id="linearGradient67"
       x1="825.48431"
       y1="727.15228"
       x2="141.63063"
       y2="43.298653"
       gradientUnits="userSpaceOnUse" /><filter
       inkscape:label="Bloom"
       inkscape:menu="Bevels"
       inkscape:menu-tooltip="Soft, cushion-like bevel with matte highlights"
       style="color-interpolation-filters:sRGB;"
       id="filter69"
       x="-0.062430354"
       y="-0.081982853"
       width="1.1248607"
       height="1.1639657"><feGaussianBlur
         result="result1"
         in="SourceAlpha"
         stdDeviation="18.243243243243242"
         id="feGaussianBlur67" /><feSpecularLighting
         result="result0"
         specularExponent="18.1"
         specularConstant="2"
         surfaceScale="5"
         id="feSpecularLighting67"><feDistantLight
           azimuth="225"
           elevation="24"
           id="feDistantLight67" /></feSpecularLighting><feComposite
         result="result6"
         operator="in"
         in2="SourceAlpha"
         id="feComposite67" /><feMorphology
         radius="5.7"
         operator="dilate"
         id="feMorphology67" /><feGaussianBlur
         result="result11"
         stdDeviation="5.7"
         id="feGaussianBlur68" /><feDiffuseLighting
         surfaceScale="5"
         result="result3"
         diffuseConstant="2"
         in="result1"
         id="feDiffuseLighting68"><feDistantLight
           elevation="25"
           azimuth="225"
           id="feDistantLight68" /></feDiffuseLighting><feBlend
         result="result7"
         mode="multiply"
         in="result3"
         in2="SourceGraphic"
         id="feBlend68" /><feComposite
         in="result7"
         operator="in"
         in2="SourceAlpha"
         result="result91"
         id="feComposite68" /><feBlend
         result="result9"
         mode="lighten"
         in="result6"
         in2="result91"
         id="feBlend69" /><feComposite
         in="result11"
         in2="result9"
         id="feComposite69" /></filter><filter
       inkscape:label="Bloom"
       inkscape:menu="Bevels"
       inkscape:menu-tooltip="Soft, cushion-like bevel with matte highlights"
       style="color-interpolation-filters:sRGB;"
       id="filter7"
       x="-0.058285278"
       y="-0.093808239"
       width="1.1165706"
       height="1.1876165"><feGaussianBlur
         result="result1"
         in="SourceAlpha"
         stdDeviation="14.189189189189189"
         id="feGaussianBlur5" /><feSpecularLighting
         result="result0"
         specularExponent="18.1"
         specularConstant="2"
         surfaceScale="5"
         id="feSpecularLighting5"><feDistantLight
           azimuth="225"
           elevation="24"
           id="feDistantLight5" /></feSpecularLighting><feComposite
         result="result6"
         operator="in"
         in2="SourceAlpha"
         id="feComposite5" /><feMorphology
         radius="5.7"
         operator="dilate"
         id="feMorphology5" /><feGaussianBlur
         result="result11"
         stdDeviation="5.7"
         id="feGaussianBlur6" /><feDiffuseLighting
         surfaceScale="5"
         result="result3"
         diffuseConstant="2"
         in="result1"
         id="feDiffuseLighting6"><feDistantLight
           elevation="25"
           azimuth="225"
           id="feDistantLight6" /></feDiffuseLighting><feBlend
         result="result7"
         mode="multiply"
         in="result3"
         in2="SourceGraphic"
         id="feBlend6" /><feComposite
         in="result7"
         operator="in"
         in2="SourceAlpha"
         result="result91"
         id="feComposite6" /><feBlend
         result="result9"
         mode="lighten"
         in="result6"
         in2="result91"
         id="feBlend7" /><feComposite
         in="result11"
         in2="result9"
         id="feComposite7" /></filter><linearGradient
       inkscape:collect="always"
       xlink:href="#linearGradient7"
       id="linearGradient8"
       x1="203.70645"
       y1="1101.105"
       x2="927.52594"
       y2="377.28549"
       gradientUnits="userSpaceOnUse" /></defs><sodipodi:namedview
     id="namedview1"
     pagecolor="#505050"
     bordercolor="#eeeeee"
     borderopacity="1"
     inkscape:showpageshadow="0"
     inkscape:pageopacity="0"
     inkscape:pagecheckerboard="0"
     inkscape:deskcolor="#505050"
     showguides="true"
     inkscape:document-units="px"
     inkscape:zoom="0.70710678"
     inkscape:cx="423.55696"
     inkscape:cy="461.74073"
     inkscape:window-width="2560"
     inkscape:window-height="1369"
     inkscape:window-x="-8"
     inkscape:window-y="-8"
     inkscape:window-maximized="1"
     inkscape:current-layer="g1" /><g
     inkscape:groupmode="layer"
     inkscape:label="Image"
     id="g1"><path
       id="path7"
       style="fill:url(#linearGradient67);fill-opacity:1;stroke-width:1.14929;filter:url(#filter69)"
       d="M 512 0 A 512 512 0 0 0 146.46484 155.30273 L 879.125 155.30273 A 512 512 0 0 0 512 0 z M 101.38477 208.33203 A 512 512 0 0 0 13.429688 401.36133 L 145.26367 401.36133 C 164.65367 401.36133 180.26367 392.40549 180.26367 381.2793 L 180.26367 228.41602 C 180.26367 217.28982 164.65367 208.33203 145.26367 208.33203 L 101.38477 208.33203 z M 354.23047 208.33203 C 334.84047 208.33203 319.23047 223.94203 319.23047 243.33203 C 319.23047 262.72203 334.84047 278.33203 354.23047 278.33203 L 961.23047 278.33203 C 963.24777 278.33203 965.19313 278.0668 967.11523 277.74219 A 512 512 0 0 0 924.17969 208.33203 L 354.23047 208.33203 z M 260.63672 269.62695 C 241.24672 269.62695 225.63672 285.23695 225.63672 304.62695 L 225.63672 308.24414 L 225.63672 583.62695 C 225.63672 603.01695 241.24672 618.62695 260.63672 618.62695 C 280.02672 618.62695 295.63672 603.01695 295.63672 583.62695 L 295.63672 395.88086 L 500.27539 608.94727 L 500.27539 502.20703 L 286.9707 280.11719 C 280.255 273.12489 271.48901 269.62695 262.72461 269.62695 C 262.37401 269.62695 262.02433 269.66849 261.67383 269.67969 C 261.32613 269.66959 260.98702 269.62695 260.63672 269.62695 z M 456 331.36133 C 436.61 331.36133 421 346.97133 421 366.36133 C 421 385.75133 436.61 401.36133 456 401.36133 L 569.32617 401.36133 L 569.32617 665.35742 C 569.32617 684.74742 584.93617 700.35742 604.32617 700.35742 C 623.71617 700.35742 639.32617 684.74742 639.32617 665.35742 L 639.32617 401.36133 L 1011.748 401.36133 A 512 512 0 0 0 990.92578 331.36133 L 456 331.36133 z M 4.1191406 454.39062 A 512 512 0 0 0 0 512 A 512 512 0 0 0 0.88671875 524.39062 L 145.26367 524.39062 C 164.65367 524.39062 180.26367 508.78062 180.26367 489.39062 C 180.26367 470.00063 164.65367 454.39062 145.26367 454.39062 L 4.1191406 454.39062 z M 4.6777344 577.42188 A 512 512 0 0 0 18.820312 647.42188 L 145.26367 647.42188 C 164.65367 647.42188 180.26367 631.81187 180.26367 612.42188 C 180.26367 593.03188 164.65367 577.42188 145.26367 577.42188 L 4.6777344 577.42188 z M 37.226562 700.45117 A 512 512 0 0 0 71.253906 770.45117 L 489.74805 770.45117 C 509.13805 770.45117 524.74805 754.84117 524.74805 735.45117 C 524.74805 716.06117 509.13805 700.45117 489.74805 700.45117 L 37.226562 700.45117 z " /><path
       id="path5"
       style="fill:url(#linearGradient8);fill-opacity:1;stroke-width:1.14929;filter:url(#filter7)"
       d="M 768.02148 454.39062 C 748.63148 454.39062 733.02148 470.00063 733.02148 489.39062 L 733.02148 823.48047 L 107.23242 823.48047 A 512 512 0 0 0 171.24805 893.48047 L 768.02148 893.48047 C 770.44528 893.48047 772.8092 893.23619 775.0918 892.77148 C 777.3743 892.30678 779.57482 891.62148 781.66992 890.73828 C 783.76502 889.85508 785.75383 888.77307 787.61523 887.51758 C 789.47663 886.26209 791.20942 884.83352 792.79102 883.25195 C 794.37252 881.67039 795.80319 879.93564 797.05859 878.07422 C 798.31409 876.21279 799.396 874.22398 800.2793 872.12891 C 801.1625 870.03383 801.8477 867.8333 802.3125 865.55078 C 802.7772 863.26826 803.02148 860.90422 803.02148 858.48047 L 803.02148 489.39062 C 803.02148 470.00063 787.41148 454.39062 768.02148 454.39062 z M 882.97852 454.39062 C 863.58852 454.39062 847.97852 470.00063 847.97852 489.39062 C 847.97852 508.78064 863.58852 524.39062 882.97852 524.39062 L 1023.1133 524.39062 A 512 512 0 0 0 1024 512 A 512 512 0 0 0 1020.6191 454.39062 L 882.97852 454.39062 z M 882.97852 577.42188 C 863.58852 577.42188 847.97852 593.03188 847.97852 612.42188 C 847.97852 631.81187 863.58852 647.42188 882.97852 647.42188 L 1005.1797 647.42188 A 512 512 0 0 0 1019.3223 577.42188 L 882.97852 577.42188 z M 882.97852 700.45117 C 863.58852 700.45117 847.97852 716.06117 847.97852 735.45117 L 847.97852 898.25391 A 512 512 0 0 0 986.77344 700.45117 L 882.97852 700.45117 z M 242.12695 946.50977 A 512 512 0 0 0 512 1024 A 512 512 0 0 0 781.87305 946.50977 L 242.12695 946.50977 z " /></g></svg>
